Maigret et Les Caves du Majestic

avec Bruno Cremer

-----------------

General
Complete name                    : Maigret.S02E03.Maigret.et.Les.Caves.du.Majestic.1993.avi
Format                           : AVI
Format/Info                      : Audio Video Interleave
File size                        : 696 MiB
Duration                         : 1h 35mn
Overall bit rate                 : 1 015 Kbps
Movie name                       : Maigret et Les Caves du Majestic
Movie name/Country               : France / Belgique / Suisse
Original source form/Distributed : DVB
Genre                            : Drama / Mystery
Law rating                       : Unrated
Recorded date                    : 1993-01-22
Writing application              : VirtualDub build 32817/releaseVirtualDubMod 1.5.10.2 Fr | www.trad-fr.com ||  (build 2540/release)
Original source form             : Digital Video Broadcasting
Original source form/Name        : Teleplay
IMIU                             : http://www.imdb.com/title/tt0104793/

Video
ID                               : 0
Format                           : MPEG-4 Visual
Format profile                   : Advanced Simple@L5
Format settings, BVOP            : Yes
Format settings, QPel            : No
Format settings, GMC             : No warppoints
Format settings, Matrix          : Default (H.263)
Muxing mode                      : Packed bitstream
Codec ID                         : XVID
Codec ID/Hint                    : XviD
Duration                         : 1h 35mn
Bit rate                         : 910 Kbps
Width                            : 480 pixels
Height                           : 304 pixels
Display aspect ratio             : 1.579
Frame rate                       : 25.000 fps
Resolution                       : 8 bits
Colorimetry                      : 4:2:0
Scan type                        : Progressive
Bits/(Pixel*Frame)               : 0.249
Stream size                      : 624 MiB (90%)
Writing library                  : XviD 1.1.2 (UTC 2006-11-01)

Audio
ID                               : 1
Format                           : AC-3
Format/Info                      : Audio Coding 3
Codec ID                         : 2000
Duration                         : 1h 35mn
Bit rate mode                    : Constant
Bit rate                         : 96.0 Kbps
Channel(s)                       : 2 channels
Channel positions                : L R
Sampling rate                    : 32.0 KHz
Stream size                      : 65.8 MiB (9%)
Alignment                        : Aligned on interleaves
Interleave, duration             : 48 ms (1.20 video frame)
Interleave, preload duration     : 528 ms
Language                         : French

-----------------

HTML file contains more detailed information